<svg width="40" height="40" viewBox="0 0 40 40" fill="none" xmlns="http://www.w3.org/2000/svg">
<path d="M32.997 13.5484C32.4439 12.824 31.5814 12.8714 31.0002 13.5484L26.6692 18.5521C26.1395 19.1682 25.4786 19.5 24.7943 19.5H19.2493C18.8368 19.5 18.4993 19.0125 18.4993 18.4167C18.4993 17.8208 18.8368 17.3333 19.2493 17.3333H22.9194C23.6647 17.3333 24.3584 16.5953 24.4803 15.5323C24.6349 14.1781 23.9131 13 22.9991 13H15.4995C14.2339 13 13.0106 13.6297 12.0263 14.7807L9.84669 17.3333H7.24996C6.83748 17.3333 6.5 17.8208 6.5 18.4167V24.9167C6.5 25.5125 6.83748 26 7.24996 26H23.974C24.6537 26 25.3146 25.6682 25.8489 25.0521L32.936 16.8594C33.6485 16.0401 33.7047 14.4693 32.997 13.5484Z" fill="white"/>
</svg>
