<svg xmlns="http://www.w3.org/2000/svg" width="4" height="8" fill="none" viewBox="0 0 4 8"><path fill="#5D5D60" d="M4 3.5501C4 3.44785 3.9591 3.35378 3.88139 3.28016L0.642127 0.106339C0.568507 0.0368098 0.478528 0 0.372188 0C0.163599 0 0 0.159509 0 0.372188C0 0.474438 0.0408998 0.568507 0.106339 0.638037L3.08384 3.5501L0.106339 6.46217C0.0408998 6.5317 0 6.62168 0 6.72802C0 6.9407 0.163599 7.1002 0.372188 7.1002C0.478528 7.1002 0.568507 7.0634 0.642127 6.98978L3.88139 3.82004C3.9591 3.74233 4 3.65235 4 3.5501Z"/></svg>