<svg width="40" height="40" viewBox="0 0 40 40" fill="none" xmlns="http://www.w3.org/2000/svg">
<g clip-path="url(#clip0_54_686)">
<path d="M39.0839 1.99217C39.045 1.75838 38.9546 1.54407 38.8235 1.37498C38.6924 1.2059 38.5263 1.08925 38.345 1.03905C36.3949 0.5 34.8693 0.5 33.3492 0.5C27.0991 0.5 23.3502 4.81244 20.5528 10.4999H14.2421C13.7032 10.5004 13.175 10.6943 12.7165 11.0597C12.258 11.4252 11.8873 11.9479 11.6458 12.5694L8.65275 20.288C8.54222 20.5739 8.49017 20.8916 8.50153 21.2107C8.5129 21.5299 8.5873 21.84 8.71769 22.1117C8.84807 22.3834 9.03011 22.6075 9.24653 22.7629C9.46295 22.9184 9.70656 22.9998 9.95425 22.9997H16.2389L14.878 24.7551C14.5147 25.2239 14.3106 25.8597 14.3106 26.5227C14.3106 27.1856 14.5147 27.8214 14.878 28.2902L17.9607 32.2675C18.1407 32.4997 18.3543 32.6839 18.5895 32.8096C18.8247 32.9353 19.0767 32.9999 19.3312 32.9999C19.5858 32.9999 19.8378 32.9353 20.073 32.8096C20.3082 32.6839 20.5218 32.4997 20.7018 32.2675L22.0626 30.5121V38.6245C22.0626 38.9439 22.1257 39.258 22.2462 39.5371C22.3666 39.8161 22.5404 40.0509 22.7509 40.2191C22.9614 40.3872 23.2017 40.4832 23.449 40.498C23.6964 40.5127 23.9425 40.4457 24.1642 40.3033L30.1418 36.4448C30.6244 36.1338 31.0302 35.6555 31.3137 35.0634C31.5972 34.4714 31.7471 33.7892 31.7467 33.0933V24.9364C36.143 21.3192 39.4988 16.4677 39.4988 8.4452C39.5048 6.47648 39.5048 4.50776 39.0839 1.99217ZM31.7527 13.6248C31.2736 13.6248 30.8052 13.4415 30.4069 13.0982C30.0085 12.7548 29.698 12.2667 29.5146 11.6957C29.3313 11.1247 29.2833 10.4964 29.3768 9.89021C29.4702 9.28403 29.701 8.72721 30.0398 8.29018C30.3786 7.85315 30.8102 7.55552 31.2801 7.43495C31.7501 7.31437 32.2371 7.37626 32.6798 7.61278C33.1225 7.8493 33.5008 8.24983 33.767 8.76373C34.0332 9.27762 34.1753 9.8818 34.1753 10.4999C34.1753 11.3286 33.92 12.1235 33.4657 12.7095C33.0114 13.2956 32.3952 13.6248 31.7527 13.6248Z" fill="white"/>
</g>
<defs>
<clipPath id="clip0_54_686">
<rect width="40" height="40" fill="white"/>
</clipPath>
</defs>
</svg>
