<svg width="18" height="12" viewBox="0 0 18 12" fill="none" xmlns="http://www.w3.org/2000/svg">
<path d="M4.72615 5.99076L4.73123 5.17724L4.73123 5.17724L4.72615 5.99076ZM17.7758 6.56602C18.0718 6.24832 18.075 5.73322 17.783 5.41552L13.0249 0.238277C12.733 -0.0794244 12.2564 -0.0794248 11.9604 0.238276C11.6645 0.555977 11.6613 1.07107 11.9532 1.38877L16.1826 5.99077L11.8957 10.5928C11.5998 10.9105 11.5966 11.4256 11.8886 11.7433C12.1805 12.061 12.6571 12.061 12.9531 11.7433L17.7758 6.56602ZM2.13436e-05 6.80429L4.72107 6.80429L4.73123 5.17724L0.0101835 5.17724L2.13436e-05 6.80429ZM4.72107 6.80429L17.2421 6.80429L17.2522 5.17724L4.73123 5.17724L4.72107 6.80429Z" fill="black"/>
</svg>
