<svg xmlns="http://www.w3.org/2000/svg" width="63" height="26" fill="none" viewBox="0 0 63 26"><path stroke="#468CF7" stroke-width="1.449" d="M35.2892 7.434L33.2764 5.16959C32.8029 4.63692 32.0567 4.38786 31.4463 4.75577C31.1225 4.95093 30.8153 5.18654 30.5311 5.43837C29.1117 6.69626 28.8075 8.73238 29.4832 10.5046C30.1907 12.3603 31.4249 14.8161 33.4735 16.8647C36.7 20.0913 40.2367 21.6956 43.1353 21.6956C44.9667 21.6956 46.3159 20.7916 46.8022 19.6976C47.0407 19.1612 46.7332 18.5836 46.2748 18.2169L43.3762 15.8981C42.6705 15.3335 41.6677 15.3335 40.962 15.8981L40.2728 16.4494C39.9602 16.6995 39.5237 16.7323 39.1837 16.5208C36.9546 15.1345 35.8637 13.9159 34.7049 11.6111C34.5388 11.2808 34.5863 10.8844 34.8172 10.5957L35.3538 9.92492C35.942 9.18974 35.9147 8.13768 35.2892 7.434Z"/></svg>